<?xml version="1.0" encoding="UTF-8" standalone="no" ?>
<!DOCTYPE svg PUBLIC "-//W3C//DTD SVG 1.1//EN" "http://www.w3.org/Graphics/SVG/1.1/DTD/svg11.dtd">
<svg xmlns="http://www.w3.org/2000/svg" xmlns:xlink="http://www.w3.org/1999/xlink" version="1.1" width="1280" height="1024" viewBox="0 0 1280 1024" xml:space="preserve">
<desc>Created with Fabric.js 5.3.0</desc>
<defs>
</defs>
<g transform="matrix(1 0 0 1 640 512)" id="background-logo"  >
<rect style="stroke: none; stroke-width: 0; stroke-dasharray: none; stroke-linecap: butt; stroke-dashoffset: 0; stroke-linejoin: miter; stroke-miterlimit: 4; fill: rgb(241,240,229); fill-rule: nonzero; opacity: 1;"  paint-order="stroke"  x="-640" y="-512" rx="0" ry="0" width="1280" height="1024" />
</g>
<g transform="matrix(3.7881264669369052 0 0 3.7881264669369052 640.606946951812 394.7435468565581)" id="logo-logo"  >
<g style=""  paint-order="stroke"   >
		<g transform="matrix(0.1627955625447334 0 0 -0.1627955625447334 -0.8835848145583896 31.34785839025517)"  >
<linearGradient id="SVGID_296098" gradientUnits="userSpaceOnUse" gradientTransform="matrix(1 0 0 1 2650.354450106641 4231.43)"  x1="0" y1="0" x2="0" y2="506">
<stop offset="0%" style="stop-color:rgb(250,217,97);stop-opacity: 1"/>
<stop offset="100%" style="stop-color:rgb(247,107,28);stop-opacity: 1"/>
</linearGradient>
<path style="stroke: none; stroke-width: 1; stroke-dasharray: none; stroke-linecap: butt; stroke-dashoffset: 0; stroke-linejoin: miter; stroke-miterlimit: 4; fill: url(#SVGID_296098); fill-rule: evenodd; opacity: 1;"  paint-order="stroke"  transform=" translate(-2970.9522250533205, -4484.6054515957285)" d="M 3291.55 4677.93 C 3181.52 4825.9800000000005 2789.3100000000004 4651.950000000001 2651.21 4658.34 L 2651.27 4658.29 C 2644.55 4510.28 2668.06 4247.27 2954.6 4234.41 L 2963.43 4231.43 C 3024.41 4232.08 3074.02 4241.34 3114.35 4257.54 C 3280.65 4324.32 3290.92 4494.08 3291.5499999999997 4677.93" stroke-linecap="round" />
</g>
		<g transform="matrix(0.1627955625447334 0 0 -0.1627955625447334 -38.68250730842465 -51.254536527161804)"  >
<linearGradient id="SVGID_296099" gradientUnits="userSpaceOnUse" gradientTransform="matrix(1 0 0 1 2591.3415654528617 4825.709999999999)"  x1="0" y1="0" x2="0" y2="333">
<stop offset="0%" style="stop-color:rgb(250,217,97);stop-opacity: 1"/>
<stop offset="100%" style="stop-color:rgb(247,107,28);stop-opacity: 1"/>
</linearGradient>
<path style="stroke: none; stroke-width: 1; stroke-dasharray: none; stroke-linecap: butt; stroke-dashoffset: 0; stroke-linejoin: miter; stroke-miterlimit: 4; fill: url(#SVGID_296099); fill-rule: evenodd; opacity: 1;"  paint-order="stroke"  transform=" translate(-2738.7657827264306, -4992.004999999999)" d="M 2636.58 4825.71 C 2594.31 4863.2 2533.7 5068.97 2710.7599999999998 5158.3 C 2710.7599999999998 5158.3 2699.2 5080.93 2760.2099999999996 5067.38 C 2813.3399999999997 5055.57 2823.1799999999994 5000 2886.1899999999996 4997.61 C 2874.6299999999997 4981.66 2843.4999999999995 4949.2699999999995 2760.2099999999996 4974.0599999999995 C 2663.3799999999997 5002.879999999999 2609.4599999999996 4931.789999999999 2636.5799999999995 4825.709999999999 z M 2784.92 5020.7 C 2767.58 5040.34 2767.84 5039.3 2733.48 5030.67 C 2752.42 5022.96 2766.18 5025.42 2784.92 5020.7" stroke-linecap="round" />
</g>
		<g transform="matrix(0.1627955625447334 0 0 -0.1627955625447334 -37.87252130343688 -35.768608640094016)"  >
<linearGradient id="SVGID_296100" gradientUnits="userSpaceOnUse" gradientTransform="matrix(1 0 0 1 2706.142524709079 4836.859999999999)"  x1="0" y1="0" x2="0" y2="120">
<stop offset="0%" style="stop-color:rgb(250,217,97);stop-opacity: 1"/>
<stop offset="100%" style="stop-color:rgb(247,107,28);stop-opacity: 1"/>
</linearGradient>
<path style="stroke: none; stroke-width: 1; stroke-dasharray: none; stroke-linecap: butt; stroke-dashoffset: 0; stroke-linejoin: miter; stroke-miterlimit: 4; fill: url(#SVGID_296100); fill-rule: evenodd; opacity: 1;"  paint-order="stroke"  transform=" translate(-2743.7412623545397, -4896.879999999999)" d="M 2781.34 4956.9 C 2703.9700000000003 4952.91 2664.8900000000003 4869.5599999999995 2770.9700000000003 4836.86 C 2724.03 4861.38 2699.9800000000005 4920.21 2781.34 4956.9" stroke-linecap="round" />
</g>
		<g transform="matrix(0.1627955625447334 0 0 -0.1627955625447334 -6.535486606889606 -28.581114327821723)"  >
<linearGradient id="SVGID_296101" gradientUnits="userSpaceOnUse" gradientTransform="matrix(1 0 0 1 2561.7388745420035 4702.519137250163)"  x1="0" y1="0" x2="0" y2="300">
<stop offset="0%" style="stop-color:rgb(250,217,97);stop-opacity: 1"/>
<stop offset="100%" style="stop-color:rgb(247,107,28);stop-opacity: 1"/>
</linearGradient>
<path style="stroke: none; stroke-width: 1; stroke-dasharray: none; stroke-linecap: butt; stroke-dashoffset: 0; stroke-linejoin: miter; stroke-miterlimit: 4; fill: url(#SVGID_296101); fill-rule: evenodd; opacity: 1;"  paint-order="stroke"  transform=" translate(-2936.2344372710018, -4852.729568625082)" d="M 3310.73 4723.79 C 3262.07 4943.13 3038.75 4856.98 2813.04 4774.04 C 2587.32 4691.08 2560.2 4882.5 2580.94 5002.94 C 2555.42 4943.919999999999 2507.75 4632.7 2808.03 4716.86 C 3170.28 4818.4 3253.8700000000003 4767.11 3310.73 4723.79" stroke-linecap="round" />
</g>
		<g transform="matrix(0.1627955625447334 0 0 -0.1627955625447334 -3.1251406604491194 37.63535321774961)"  >
<path style="stroke: none; stroke-width: 1; stroke-dasharray: none; stroke-linecap: butt; stroke-dashoffset: 0; stroke-linejoin: miter; stroke-miterlimit: 4; fill: rgb(41,29,17); fill-rule: nonzero; opacity: 1;"  paint-order="stroke"  transform=" translate(-2957.183079194232, -4445.983423272525)" d="M 2614.23 4712.44 C 2614.23 4495.549999999999 2630.9 4329.7699999999995 2771.5 4263.19 C 2855.39 4223.46 3027.58 4225.7 3114.35 4260.549999999999 C 3290.1099999999997 4331.129999999999 3291.58 4516.749999999999 3291.58 4712.44 L 3291.58 4712.44 C 3349.58 4439.8099999999995 3315.06 4178.48 2956.19 4179.53 C 2609.12 4180.55 2571.92 4435.2 2614.23 4712.44 L 2614.23 4712.44" stroke-linecap="round" />
</g>
		<g transform="matrix(0.1627955625447334 0 0 -0.1627955625447334 67.0830189289689 22.723449420089594)"  >
<path style="stroke: none; stroke-width: 1; stroke-dasharray: none; stroke-linecap: butt; stroke-dashoffset: 0; stroke-linejoin: miter; stroke-miterlimit: 4; fill: rgb(41,29,17); fill-rule: nonzero; opacity: 1;"  paint-order="stroke"  transform=" translate(-3388.448885779876, -4537.582380667709)" d="M 3317.8 4638.52 C 3331.84 4658.55 3397.8100000000004 4674.860000000001 3427.2400000000002 4651.47 C 3476.01 4612.71 3466.2900000000004 4494.75 3415.07 4442.37 C 3391.11 4417.87 3351.71 4400.54 3319.92 4421.7 L 3319.92 4421.7 C 3412.23 4417.7 3445.8 4567.34 3401.09 4626.0199999999995 C 3384.81 4647.379999999999 3354.02 4650.459999999999 3317.8 4638.5199999999995 L 3317.8 4638.5199999999995" stroke-linecap="round" />
</g>
		<g transform="matrix(0.1627955625447334 0 0 -0.1627955625447334 -2.2473264604873293 74.87456308119908)"  >
<path style="stroke: none; stroke-width: 1; stroke-dasharray: none; stroke-linecap: butt; stroke-dashoffset: 0; stroke-linejoin: miter; stroke-miterlimit: 4; fill: rgb(41,29,17); fill-rule: evenodd; opacity: 1;"  paint-order="stroke"  transform=" translate(-2962.5752052831767, -4217.235112929503)" d="M 3314.96 4323.71 C 3352.76 4314.7300000000005 3469.35 4281.05 3419.13 4216.84 C 3326.37 4098.2300000000005 2924.9500000000003 4100.81 2775.4300000000003 4122.14 C 2734.4600000000005 4127.990000000001 2476.28 4169.43 2494.59 4247.88 C 2497.25 4242.29 2499.5 4236.6 2503.2200000000003 4231.61 C 2592.8100000000004 4111.299999999999 3192.2700000000004 4142.21 3335.88 4193.78 C 3467.29 4240.969999999999 3400.01 4278.71 3314.96 4323.71" stroke-linecap="round" />
</g>
		<g transform="matrix(0.1627955625447334 0 0 -0.1627955625447334 15.725662011055078 -64.86831544496508)"  >
<path style="stroke: none; stroke-width: 1; stroke-dasharray: none; stroke-linecap: butt; stroke-dashoffset: 0; stroke-linejoin: miter; stroke-miterlimit: 4; fill: rgb(41,29,17); fill-rule: nonzero; opacity: 1;"  paint-order="stroke"  transform=" translate(-3072.9774066122436, -5075.629999999999)" d="M 3085.06 5243.57 C 3221.45 5115.92 3010.23 5033.57 3053.52 4907.69 L 3053.52 4907.69 C 2923.73 5017.5 3165.05 5109.98 3085.06 5243.57 L 3085.06 5243.57" stroke-linecap="round" />
</g>
		<g transform="matrix(0.1627955625447334 0 0 -0.1627955625447334 32.1261628916796 -57.710194559873315)"  >
<path style="stroke: none; stroke-width: 1; stroke-dasharray: none; stroke-linecap: butt; stroke-dashoffset: 0; stroke-linejoin: miter; stroke-miterlimit: 4; fill: rgb(41,29,17); fill-rule: nonzero; opacity: 1;"  paint-order="stroke"  transform=" translate(-3173.7203299712137, -5031.66)" d="M 3182.82 5158.19 C 3285.5800000000004 5062.009999999999 3126.4500000000003 4999.969999999999 3159.06 4905.129999999999 L 3159.06 4905.129999999999 C 3061.2799999999997 4987.869999999999 3243.09 5057.539999999999 3182.82 5158.19 L 3182.82 5158.19" stroke-linecap="round" />
</g>
		<g transform="matrix(0.1627955625447334 0 0 -0.1627955625447334 -3.7101147270964816 -57.710194559873315)"  >
<path style="stroke: none; stroke-width: 1; stroke-dasharray: none; stroke-linecap: butt; stroke-dashoffset: 0; stroke-linejoin: miter; stroke-miterlimit: 4; fill: rgb(41,29,17); fill-rule: nonzero; opacity: 1;"  paint-order="stroke"  transform=" translate(-2953.589774453591, -5031.66)" d="M 2962.7 5158.19 C 3065.45 5062.009999999999 2906.31 4999.969999999999 2938.93 4905.129999999999 L 2938.93 4905.129999999999 C 2841.14 4987.869999999999 3022.96 5057.539999999999 2962.7 5158.19 L 2962.7 5158.19" stroke-linecap="round" />
</g>
</g>
</g>
<g transform="matrix(1.9211538461538462 0 0 1.9211538461538462 640.3832570508965 838.5622726215045)" id="text-logo"  >
<g style=""  paint-order="stroke"   >
		<g transform="matrix(1 0 0 1 0 0)" id="text-logo-path-0"  >
<path style="stroke: none; stroke-width: 0; stroke-dasharray: none; stroke-linecap: butt; stroke-dashoffset: 0; stroke-linejoin: miter; stroke-miterlimit: 4; fill: rgb(41,29,17); fill-rule: nonzero; opacity: 1;"  paint-order="stroke"  transform=" translate(-263.78499999999997, 19.88)" d="M 17.35 0.82 C 24.74 0.82 31.9 -3.32 31.9 -11.29 C 31.9 -19.15 25.73 -22.41 19.04 -24.45 C 17.23 -25.03 15.89 -25.56 15.02 -25.97 C 13.8 -26.55 12.92 -27.19 12.92 -28.64 C 12.92 -30.33 15.08 -30.97 16.42 -30.97 C 19.56 -30.97 21.13 -29.57 22.47 -26.84 L 30.74 -31.67 C 27.89 -37.55 22.94 -40.58 16.42 -40.58 C 9.31 -40.58 3.26 -35.98 3.26 -28.64 C 3.26 -21.13 8.62 -18.16 15.08 -16.24 C 17.12 -15.66 18.57 -15.14 19.56 -14.73 C 20.9 -14.21 22.24 -13.51 22.24 -11.88 C 22.24 -9.72 19.33 -8.67 17.58 -8.67 C 13.8 -8.67 11.18 -10.13 9.72 -13.74 L 1.57 -8.97 C 4.19 -2.27 10.36 0.82 17.35 0.82 Z M 45.53 -19.74 C 45.53 -8.38 54.84 0.82 66.08 0.82 C 73.59 0.82 80.69 -3.49 84.18 -10.13 L 75.63 -14.79 C 73.88 -11.24 70.04 -8.91 66.08 -8.91 C 60.14 -8.91 55.19 -13.86 55.19 -19.74 C 55.19 -25.67 60.2 -30.56 66.08 -30.56 C 70.04 -30.56 73.65 -28.47 75.57 -24.98 L 84.07 -29.52 C 80.52 -36.15 73.59 -40.23 66.08 -40.23 C 54.78 -40.23 45.53 -31.15 45.53 -19.74 Z M 100.95 -39.82 L 100.95 0 L 110.67 0 L 110.67 -39.82 Z M 169.47 0.82 C 176.87 0.82 184.03 -3.32 184.03 -11.29 C 184.03 -19.15 177.86 -22.41 171.16 -24.45 C 169.36 -25.03 168.02 -25.56 167.14 -25.97 C 165.92 -26.55 165.05 -27.19 165.05 -28.64 C 165.05 -30.33 167.2 -30.97 168.54 -30.97 C 171.69 -30.97 173.26 -29.57 174.6 -26.84 L 182.86 -31.67 C 180.01 -37.55 175.06 -40.58 168.54 -40.58 C 161.44 -40.58 155.38 -35.98 155.38 -28.64 C 155.38 -21.13 160.74 -18.16 167.2 -16.24 C 169.24 -15.66 170.7 -15.14 171.69 -14.73 C 173.02 -14.21 174.36 -13.51 174.36 -11.88 C 174.36 -9.72 171.45 -8.67 169.71 -8.67 C 165.92 -8.67 163.3 -10.13 161.85 -13.74 L 153.7 -8.97 C 156.32 -2.27 162.49 0.82 169.47 0.82 Z M 217.68 0.82 C 229.09 0.82 238.17 -8.44 238.17 -19.74 C 238.17 -31.21 229.03 -40.23 217.68 -40.23 C 206.27 -40.23 197.13 -31.03 197.13 -19.74 C 197.13 -8.5 206.33 0.82 217.68 0.82 Z M 206.79 -19.74 C 206.79 -25.67 211.8 -30.56 217.68 -30.56 C 223.67 -30.56 228.45 -25.67 228.45 -19.74 C 228.45 -13.8 223.67 -8.91 217.68 -8.91 C 211.74 -8.91 206.79 -13.86 206.79 -19.74 Z M 278.52 -30.62 L 278.52 -39.82 L 253.54 -39.82 L 253.54 0 L 263.26 0 L 263.26 -15.08 L 277.93 -15.08 L 277.93 -24.28 L 263.26 -24.28 L 263.26 -30.62 Z M 323.75 -30.62 L 323.75 -39.82 L 294 -39.82 L 294 -30.62 L 304.07 -30.62 L 304.07 0 L 313.74 0 L 313.74 -30.62 Z M 383.95 -39.82 L 377.78 -15.78 L 370.91 -39.82 L 360.9 -39.82 L 354.03 -15.78 L 347.91 -39.82 L 337.9 -39.82 L 348.67 0 L 358.97 0 L 365.9 -23.17 L 372.83 0 L 383.14 0 L 393.91 -39.82 Z M 429.19 0 L 439.55 0 L 424.94 -39.82 L 414.57 -39.82 L 400.02 0 L 410.38 0 L 412.94 -6.93 L 426.62 -6.93 Z M 416.26 -16.13 L 419.81 -25.73 L 423.25 -16.13 Z M 468.08 -12.81 L 475.24 0 L 486.3 0 L 477.97 -15.02 C 481.82 -17.52 484.03 -21.77 484.03 -26.31 C 484.03 -33.82 478.03 -39.82 470.58 -39.82 L 453.7 -39.82 L 453.7 0 L 463.42 0 L 463.42 -12.81 Z M 463.42 -22.01 L 463.42 -30.62 L 470.58 -30.62 C 473.02 -30.62 474.89 -28.76 474.89 -26.31 C 474.89 -23.99 472.91 -22.01 470.58 -22.01 Z M 510.46 -9.14 L 510.46 -15.78 L 524.31 -15.78 L 524.31 -24.92 L 510.46 -24.92 L 510.46 -30.62 L 525.71 -30.62 L 525.71 -39.82 L 500.74 -39.82 L 500.74 0 L 526 0 L 526 -9.14 Z" stroke-linecap="round" />
</g>
</g>
</g>
<g transform="matrix(1.9211538461538462 0 0 1.9211538461538462 640.9475915827483 940.0732482899941)" id="tagline-f578f51c-e246-4f47-9a68-0276a6517fe2-logo"  >
<g style=""  paint-order="stroke"   >
		<g transform="matrix(1 0 0 1 0 0)" id="tagline-f578f51c-e246-4f47-9a68-0276a6517fe2-logo-path-0"  >
<path style="stroke: none; stroke-width: 0; stroke-dasharray: none; stroke-linecap: butt; stroke-dashoffset: 0; stroke-linejoin: miter; stroke-miterlimit: 4; fill: rgb(41,29,17); fill-rule: nonzero; opacity: 1;"  paint-order="stroke"  transform=" translate(-255.585, 12.139999999999999)" d="M 10.75 0.35 C 15.75 0.35 19.91 -3.82 19.91 -8.88 L 19.91 -24.28 L 17.13 -24.28 L 17.13 -8.71 C 17.13 -5.17 14.22 -2.25 10.75 -2.25 C 7.21 -2.25 4.3 -5.17 4.3 -8.71 L 4.3 -24.28 L 1.53 -24.28 L 1.53 -8.88 C 1.53 -3.82 5.69 0.35 10.75 0.35 Z M 33.75 -24.28 L 33.75 0 L 36.52 0 L 36.52 -21.47 L 49.7 0 L 53.86 0 L 53.86 -24.28 L 51.09 -24.28 L 51.09 -2.81 L 37.91 -24.28 Z M 67.7 -24.28 L 67.7 0 L 80.19 0 C 83.73 0 86.57 -2.84 86.57 -6.38 C 86.57 -9.26 84.7 -11.69 82.13 -12.49 C 83.83 -13.67 84.94 -15.61 84.94 -17.83 C 84.94 -21.4 81.99 -24.28 78.45 -24.28 Z M 70.48 -2.6 L 70.48 -10.86 L 79.84 -10.86 C 82.13 -10.86 83.97 -9.02 83.97 -6.73 C 83.97 -4.44 82.13 -2.6 79.84 -2.6 Z M 70.48 -13.46 L 70.48 -21.68 L 78.21 -21.68 C 80.47 -21.68 82.34 -19.84 82.34 -17.58 C 82.34 -15.3 80.47 -13.46 78.21 -13.46 Z M 100.41 0 L 103.18 0 L 103.18 -10.16 L 107.48 -10.16 C 113.59 -10.16 115.63 -5.72 115.63 0 L 118.41 0 C 118.41 -4.3 117.13 -8.53 113.87 -10.89 C 116.19 -12.04 117.82 -14.46 117.82 -17.27 C 117.82 -21.09 114.63 -24.28 110.81 -24.28 L 100.41 -24.28 Z M 103.18 -12.76 L 103.18 -21.68 L 110.64 -21.68 C 113.07 -21.68 115.08 -19.67 115.08 -17.24 C 115.08 -14.78 113.07 -12.76 110.64 -12.76 Z M 132.25 -24.28 L 132.25 0 L 149.24 0 L 149.24 -2.6 L 135.02 -2.6 L 135.02 -10.86 L 145.77 -10.86 L 145.77 -13.46 L 135.02 -13.46 L 135.02 -21.68 L 149.24 -21.68 L 149.24 -24.28 Z M 172.79 -24.28 L 163.08 0 L 165.99 0 L 168.39 -6 L 180.94 -6 L 183.34 0 L 186.25 0 L 176.54 -24.28 Z M 169.43 -8.6 L 174.67 -21.68 L 179.9 -8.6 Z M 200.09 -24.28 L 200.09 0 L 202.86 0 L 202.86 -8.39 L 206.99 -12.62 C 214.24 -12.31 216.7 -6.9 216.7 0 L 219.48 0 C 219.48 -6.97 216.74 -13.63 209.45 -15.09 L 218.47 -24.28 L 215 -24.28 L 202.86 -11.93 L 202.86 -24.28 Z M 243.03 -24.28 L 233.31 0 L 236.23 0 L 238.62 -6 L 251.18 -6 L 253.57 0 L 256.48 0 L 246.77 -24.28 Z M 239.66 -8.6 L 244.9 -21.68 L 250.14 -8.6 Z M 270.32 -24.28 L 270.32 0 L 282.81 0 C 286.35 0 289.19 -2.84 289.19 -6.38 C 289.19 -9.26 287.32 -11.69 284.75 -12.49 C 286.45 -13.67 287.56 -15.61 287.56 -17.83 C 287.56 -21.4 284.61 -24.28 281.07 -24.28 Z M 273.1 -2.6 L 273.1 -10.86 L 282.46 -10.86 C 284.75 -10.86 286.59 -9.02 286.59 -6.73 C 286.59 -4.44 284.75 -2.6 282.46 -2.6 Z M 273.1 -13.46 L 273.1 -21.68 L 280.83 -21.68 C 283.08 -21.68 284.96 -19.84 284.96 -17.58 C 284.96 -15.3 283.08 -13.46 280.83 -13.46 Z M 303.03 -24.28 L 303.03 0 L 320.02 0 L 320.02 -2.6 L 305.8 -2.6 L 305.8 -24.28 Z M 333.86 -24.28 L 333.86 0 L 350.86 0 L 350.86 -2.6 L 336.64 -2.6 L 336.64 -10.86 L 347.39 -10.86 L 347.39 -13.46 L 336.64 -13.46 L 336.64 -21.68 L 350.86 -21.68 L 350.86 -24.28 Z M 394.9 0.35 C 400.04 0.35 404.51 -2.81 406.38 -7.28 L 403.51 -7.28 C 401.94 -4.16 398.82 -2.25 394.9 -2.25 C 389.25 -2.25 385.19 -6.31 385.19 -12.14 C 385.19 -17.97 389.25 -22.02 394.9 -22.02 C 398.03 -22.02 400.66 -20.78 402.4 -18.69 L 404.44 -20.19 C 402.15 -22.89 398.72 -24.63 394.9 -24.63 C 388.04 -24.63 382.42 -19.01 382.42 -12.14 C 382.42 -5.27 388.04 0.35 394.9 0.35 Z M 432.71 -2.25 C 427.06 -2.25 423 -6.31 423 -12.14 C 423 -17.97 427.06 -22.02 432.71 -22.02 C 438.36 -22.02 442.42 -17.97 442.42 -12.14 C 442.42 -6.31 438.36 -2.25 432.71 -2.25 Z M 420.22 -12.14 C 420.22 -5.27 425.84 0.35 432.71 0.35 C 439.58 0.35 445.19 -5.27 445.19 -12.14 C 445.19 -19.01 439.58 -24.63 432.71 -24.63 C 425.84 -24.63 420.22 -19.01 420.22 -12.14 Z M 459.03 -24.28 L 459.03 0 L 466.32 0 C 473.18 0 478.8 -5.27 478.8 -12.14 C 478.8 -19.01 473.18 -24.28 466.32 -24.28 Z M 461.81 -2.6 L 461.81 -21.68 L 466.32 -21.68 C 471.97 -21.68 476.03 -17.97 476.03 -12.14 C 476.03 -6.31 471.97 -2.6 466.32 -2.6 Z M 492.64 -24.28 L 492.64 0 L 509.64 0 L 509.64 -2.6 L 495.42 -2.6 L 495.42 -10.86 L 506.17 -10.86 L 506.17 -13.46 L 495.42 -13.46 L 495.42 -21.68 L 509.64 -21.68 L 509.64 -24.28 Z" stroke-linecap="round" />
</g>
</g>
</g>
</svg>